<svg xmlns="http://www.w3.org/2000/svg" viewBox="0 0 628.888 109.136">
  <defs>
    <style>
      .cls-1, .cls-2, .cls-4 {
        fill: #1c745f;
      }

      .cls-1 {
        stroke: #1c745f;
      }

      .cls-3, .cls-4 {
        stroke: none;
      }
    </style>
  </defs>
  <g id="logo" transform="translate(-31 -42)">
    <g id="Symbol_2_1" data-name="Symbol 2 – 1">
      <path id="Path_1" data-name="Path 1" class="cls-1" d="M50.5,0H69.084l-17.1-28.956c8.208-1.938,16.644-9.12,16.644-22.572,0-14.136-9.69-24.51-25.536-24.51H7.524V0H23.712V-27.246H35.568Zm1.6-51.642c0,6.384-4.9,10.488-11.4,10.488H23.712V-62.13H40.7C47.2-62.13,52.1-58.026,52.1-51.642ZM73.53-27.588c0,17.67,12.654,28.956,29.412,28.956,8.55,0,17.1-2.508,22.686-7.638l-6.384-9.348c-3.534,3.42-9.576,5.472-14.706,5.472-9.348,0-14.934-5.814-15.846-12.768h40.926v-3.192c0-18.012-11.172-30.324-27.588-30.324C85.272-56.43,73.53-43.548,73.53-27.588Zm28.5-17.328c9.576,0,13.224,6.954,13.566,12.2H88.464C89.148-38.19,93.024-44.916,102.03-44.916Zm34.314,23.484H163.7V-33.744h-27.36ZM210.9,1.368c17.328,0,26.9-9.234,32.376-18.7l-13.908-6.726A20.612,20.612,0,0,1,210.9-13c-13.224,0-23.256-10.6-23.256-24.966S197.676-62.928,210.9-62.928A20.825,20.825,0,0,1,229.368-51.87l13.908-6.84c-5.358-9.462-15.048-18.582-32.376-18.582-22.23,0-39.9,15.96-39.9,39.33S188.67,1.368,210.9,1.368ZM252.852,8.55l-2.166,13a39.574,39.574,0,0,0,7.182.8c9.462-.228,16.758-2.964,20.862-13.338l25.878-64.068H288.99l-14.364,38.3-14.364-38.3h-15.5L267.1.8,265.05,5.472c-1.368,2.964-3.876,3.99-7.638,3.99A12.51,12.51,0,0,1,252.852,8.55Zm54.72-36.138c0,16.986,12.2,28.956,29.184,28.956,11.286,0,18.126-4.9,21.774-10.032l-9.462-8.778a13.9,13.9,0,0,1-11.628,5.928c-8.778,0-14.934-6.5-14.934-16.074s6.156-15.96,14.934-15.96a13.618,13.618,0,0,1,11.628,5.928L358.53-46.4c-3.648-5.13-10.488-10.032-21.774-10.032C319.77-56.43,307.572-44.46,307.572-27.588ZM367.992,0H382.47V-76.038H367.992ZM393.3-27.588c0,17.67,12.654,28.956,29.412,28.956,8.55,0,17.1-2.508,22.686-7.638l-6.384-9.348c-3.534,3.42-9.576,5.472-14.706,5.472-9.348,0-14.934-5.814-15.846-12.768h40.926v-3.192c0-18.012-11.172-30.324-27.588-30.324C405.042-56.43,393.3-43.548,393.3-27.588Zm28.5-17.328c9.576,0,13.224,6.954,13.566,12.2H408.234C408.918-38.19,412.794-44.916,421.8-44.916Z" transform="translate(210 128.292)"/>
      <g id="Union_1" data-name="Union 1" class="cls-2" transform="translate(31 42)">
        <path class="cls-3" d="M 109.7777404785156 88.5 C 99.89568328857422 88.5 90.35102844238281 84.93569183349609 82.90200042724609 78.46363830566406 L 78.63881683349609 74.75960540771484 L 74.37568664550781 78.46363830566406 C 66.92668914794922 84.93569183349609 57.38205337524414 88.5 47.5 88.5 C 24.89252853393555 88.5 6.500001907348633 70.10747528076172 6.500001907348633 47.50000381469727 C 6.500001907348633 24.89253044128418 24.89252853393555 6.500003814697266 47.5 6.500003814697266 C 57.38205337524414 6.500003814697266 66.92668914794922 10.0643196105957 74.37568664550781 16.53637313842773 L 78.63881683349609 20.24039840698242 L 82.90200042724609 16.53637313842773 C 90.35102844238281 10.0643196105957 99.89568328857422 6.500003814697266 109.7777404785156 6.500003814697266 C 132.3852081298828 6.500003814697266 150.7777404785156 24.89253044128418 150.7777404785156 47.50000381469727 C 150.7777404785156 70.10747528076172 132.3852081298828 88.5 109.7777404785156 88.5 Z"/>
        <path class="cls-4" d="M 109.7777404785156 82 C 128.8011016845703 82 144.2777404785156 66.52336883544922 144.2777404785156 47.50000381469727 C 144.2777404785156 28.47663688659668 128.8011016845703 13.00000381469727 109.7777404785156 13.00000381469727 C 101.4622344970703 13.00000381469727 93.431640625 15.99847030639648 87.16520690917969 21.44307136535645 L 78.63890075683594 28.85110473632813 L 70.11257171630859 21.44307136535645 C 63.84610366821289 15.99847030639648 55.81547164916992 13.00000381469727 47.50000381469727 13.00000381469727 C 28.47663688659668 13.00000381469727 13.00000381469727 28.47663688659668 13.00000381469727 47.50000381469727 C 13.00000381469727 66.52336883544922 28.47663688659668 82 47.50000381469727 82 C 55.81547164916992 82 63.84610366821289 79.00153350830078 70.11257171630859 73.55693817138672 L 78.63890075683594 66.14890289306641 L 87.16520690917969 73.55693817138672 C 93.431640625 79.00153350830078 101.4622344970703 82 109.7777404785156 82 M 109.7777404785156 95 C 97.86513519287109 95 86.976806640625 90.61470031738281 78.63887023925781 83.37030029296875 C 70.3009033203125 90.61470031738281 59.41260528564453 95 47.50000381469727 95 C 21.26670265197754 95 3.572591140255099e-06 73.73330688476563 3.572591140255099e-06 47.50000381469727 C 3.572591140255099e-06 21.26670455932617 21.26670265197754 3.814697265625e-06 47.50000381469727 3.814697265625e-06 C 59.41260528564453 3.814697265625e-06 70.3009033203125 4.385303974151611 78.63887023925781 11.62970352172852 C 86.976806640625 4.385303974151611 97.86513519287109 3.814697265625e-06 109.7777404785156 3.814697265625e-06 C 136.0115051269531 3.814697265625e-06 157.2777404785156 21.26670455932617 157.2777404785156 47.50000381469727 C 157.2777404785156 73.73330688476563 136.0115051269531 95 109.7777404785156 95 Z"/>
      </g>
    </g>
  </g>
</svg>
