<svg xmlns="http://www.w3.org/2000/svg" viewBox="0 0 628.888 109.136"><g data-name="Symbol 2 – 1" fill="#1c745f"><path data-name="Path 1" d="M229.5 86.292h18.584l-17.1-28.956c8.208-1.938 16.644-9.12 16.644-22.572 0-14.136-9.69-24.51-25.536-24.51h-35.568v76.038h16.188V59.046h11.856zm1.6-51.642c0 6.384-4.9 10.488-11.4 10.488h-16.988V24.162H219.7c6.5 0 11.4 4.104 11.4 10.488zm21.43 24.054c0 17.67 12.654 28.956 29.412 28.956 8.55 0 17.1-2.508 22.686-7.638l-6.384-9.348c-3.534 3.42-9.576 5.472-14.706 5.472-9.348 0-14.934-5.814-15.846-12.768h40.926v-3.192c0-18.012-11.172-30.324-27.588-30.324-16.758 0-28.5 12.882-28.5 28.842zm28.5-17.328c9.576 0 13.224 6.954 13.566 12.2h-27.132c.684-5.474 4.56-12.2 13.566-12.2zm34.314 23.484H342.7V52.548h-27.36zm74.556 22.8c17.328 0 26.9-9.234 32.376-18.7l-13.908-6.726A20.612 20.612 0 01389.9 73.292c-13.224 0-23.256-10.6-23.256-24.966s10.032-24.962 23.256-24.962a20.825 20.825 0 0118.468 11.058l13.908-6.84C416.918 18.12 407.228 9 389.9 9 367.67 9 350 24.96 350 48.33s17.67 39.33 39.9 39.33zm41.952 7.182l-2.166 13a39.574 39.574 0 007.182.8c9.462-.228 16.758-2.964 20.862-13.338l25.878-64.068H467.99l-14.364 38.3-14.364-38.3h-15.5L446.1 87.092l-2.05 4.672c-1.368 2.964-3.876 3.99-7.638 3.99a12.51 12.51 0 01-4.56-.912zm54.72-36.138c0 16.986 12.2 28.956 29.184 28.956 11.286 0 18.126-4.9 21.774-10.032l-9.462-8.778a13.9 13.9 0 01-11.628 5.928c-8.778 0-14.934-6.5-14.934-16.074s6.156-15.96 14.934-15.96a13.618 13.618 0 0111.628 5.928l9.462-8.78c-3.648-5.13-10.488-10.032-21.774-10.032-16.986.002-29.184 11.972-29.184 28.844zm60.42 27.588h14.478V10.254h-14.478zM572.3 58.704c0 17.67 12.654 28.956 29.412 28.956 8.55 0 17.1-2.508 22.686-7.638l-6.384-9.348c-3.534 3.42-9.576 5.472-14.706 5.472-9.348 0-14.934-5.814-15.846-12.768h40.926v-3.192c0-18.012-11.172-30.324-27.588-30.324-16.758 0-28.5 12.882-28.5 28.842zm28.5-17.328c9.576 0 13.224 6.954 13.566 12.2h-27.132c.684-5.474 4.56-12.2 13.566-12.2z" stroke="#1c745f"/><g data-name="Union 1"><path d="M109.778 88.5a40.975 40.975 0 01-26.876-10.036l-4.263-3.704-4.263 3.704A40.974 40.974 0 0147.5 88.5c-22.607 0-41-18.393-41-41s18.393-41 41-41a40.974 40.974 0 0126.876 10.036l4.263 3.704 4.263-3.704A40.975 40.975 0 01109.778 6.5c22.607 0 41 18.393 41 41s-18.393 41-41 41z"/><path d="M109.778 82c19.023 0 34.5-15.477 34.5-34.5S128.8 13 109.778 13a34.474 34.474 0 00-22.613 8.443l-8.526 7.408-8.526-7.408A34.474 34.474 0 0047.5 13C28.477 13 13 28.477 13 47.5S28.477 82 47.5 82a34.474 34.474 0 0022.613-8.443l8.526-7.408 8.526 7.408A34.474 34.474 0 00109.778 82m0 13c-11.913 0-22.801-4.385-31.14-11.63C70.302 90.615 59.414 95 47.5 95 21.267 95 0 73.733 0 47.5S21.267 0 47.5 0c11.913 0 22.8 4.385 31.139 11.63C86.977 4.385 97.865 0 109.778 0c26.234 0 47.5 21.267 47.5 47.5S136.012 95 109.778 95z"/></g></g></svg>